<svg width="14" height="15" viewBox="0 0 14 15" fill="none" xmlns="http://www.w3.org/2000/svg">
<path d="M11.0482 10.5737L14 13.5248L13.0248 14.5L10.0737 11.5482C8.9757 12.4285 7.60993 12.9072 6.20262 12.9052C2.77877 12.9052 0 10.1265 0 6.70262C0 3.27877 2.77877 0.5 6.20262 0.5C9.62646 0.5 12.4052 3.27877 12.4052 6.70262C12.4072 8.10993 11.9285 9.4757 11.0482 10.5737ZM9.66575 10.0624C10.5402 9.16279 11.0286 7.95718 11.0269 6.70262C11.0269 4.03756 8.86768 1.87836 6.20262 1.87836C3.53756 1.87836 1.37836 4.03756 1.37836 6.70262C1.37836 9.36768 3.53756 11.5269 6.20262 11.5269C7.45718 11.5286 8.66279 11.0402 9.56237 10.1657L9.66575 10.0624Z" fill="#939393"/>
</svg>
